 http://img840.imageshack.us/img840/3774/wildchild2008.jpg

Country.......: USA, United Kingdom, France
Genre.........: Comedy, Romance, Drama
Date release..: 14.08.2008 [World]
Director......: Nick Moore
Writers.......: Lucy Dahl
Duration......: 94 min.
More..........: http://www.imdb.com/title/tt1024255
Trailer.......: http://www.imdb.com/video/imdblink/vi1324155929
Trailer.......:

Pilot :
A rebellious Malibu princess is shipped off to a strict English boarding school by her father. 

Cats :
Emma Roberts   	 ...  	Poppy
Lexi Ainsworth 	... 	Molly
Shelby Young 	... 	Ruby
Johnny Pacar 	... 	Roddy
Aidan Quinn 	... 	Gerry Moore
Natasha Richardson 	... 	Mrs. Kingsley
Georgia King 	... 	Harriet
Ruby Thomas 	... 	Jane
Eleanor Turner Moss 	... 	Charlotte
Kimberley Nixon 	... 	Kate
Maisie Preston 	... 	Wow Girl
Juno Temple 	... 	Drippy
Sophie Wu 	... 	Kiki
Linzey Cocker 	... 	Josie
Shirley Henderson 	... 	Matron 

Data Technical :
!!! SAMPLE !!!
Audio.....: Lector Polish
Subtitles.: None
Format                           : AVI
Format/Info                      : Audio Video Interleave
File size                        : 697 MiB
Duration                         : 1h 34mn
Overall bit rate                 : 1 032 Kbps
Writing application              : transcode-1.1.5
Video
ID                               : 0
Format                           : MPEG-4 Visual
Format profile                   : Advanced Simple@L5
Format settings, BVOP            : Yes
Format settings, QPel            : No
Format settings, GMC             : No warppoints
Format settings, Matrix          : Default (H.263)
Codec ID                         : XVID
Codec ID/Hint                    : XviD
Duration                         : 1h 34mn
Bit rate                         : 894 Kbps
Width                            : 624 pixels
Height                           : 336 pixels
Display aspect ratio             : 1.857
Frame rate                       : 25.000 fps
Color space                      : YUV
Chroma subsampling               : 4:2:0
Bit depth                        : 8 bits
Scan type                        : Progressive
Bits/(Pixel*Frame)               : 0.171
Stream size                      : 603 MiB (87%)
Writing library                  : XviD 1.2.1 (UTC 2008-12-04)
Audio
ID                               : 1
Format                           : MPEG Audio
Format version                   : Version 1
Format profile                   : Layer 3
Mode                             : Joint stereo
Mode extension                   : MS Stereo
Codec ID                         : 55
Codec ID/Hint                    : MP3
Duration                         : 1h 34mn
Bit rate mode                    : Constant
Bit rate                         : 128 Kbps
Channel(s)                       : 2 channels
Sampling rate                    : 48.0 KHz
Bit depth                        : 16 bits
Stream size                      : 86.4 MiB (12%)
Alignment                        : Split accross interleaves
Interleave, duration             : 40 ms (1.00 video frame)
Writing library                  : LAME3.98.2

Screen : 
http://img217.imageshack.us/img217/7779/wildchild2008s1.jpg 
http://img703.imageshack.us/img703/1117/wildchild2008s2.jpg 
http://img821.imageshack.us/img821/4691/wildchild2008s3.jpg 
http://img828.imageshack.us/img828/9865/wildchild2008s4.jpg 
http://img192.imageshack.us/img192/2282/wildchild2008s5.jpg